<svg xmlns="http://www.w3.org/2000/svg" xmlns:xlink="http://www.w3.org/1999/xlink"  viewBox="0 0 89.565 19.906">
  <defs>
    <clipPath id="clip-path">
      <rect id="사각형_8855" data-name="사각형 8855" width="89.565" height="19.906" transform="translate(0 0)" fill="none"/>
    </clipPath>
  </defs>
  <g id="그룹_96885" data-name="그룹 96885" transform="translate(0 0)">
    <g id="그룹_96884" data-name="그룹 96884" clip-path="url(#clip-path)">
      <path id="패스_16649" data-name="패스 16649" d="M0,19.906V0H6.973a9.165,9.165,0,0,1,5.5,1.387,4.746,4.746,0,0,1,1.873,4.068,4.5,4.5,0,0,1-.752,2.577A4.342,4.342,0,0,1,11.5,9.666a4.2,4.2,0,0,1,2.414,1.545,4.569,4.569,0,0,1,.881,2.843A5.252,5.252,0,0,1,12.961,18.4a8.253,8.253,0,0,1-5.222,1.5ZM4.1,8.34H7.137q3.1-.055,3.1-2.475a2.289,2.289,0,0,0-.786-1.948,4.135,4.135,0,0,0-2.482-.6H4.1Zm0,2.9v5.373H7.616a3.392,3.392,0,0,0,2.262-.69,2.369,2.369,0,0,0,.814-1.908q0-2.734-2.83-2.775Z" fill="#333"/>
      <path id="패스_16650" data-name="패스 16650" d="M25.239,12.619H21.971v7.287h-4.1V0h7.4a8.368,8.368,0,0,1,5.441,1.572,5.428,5.428,0,0,1,1.914,4.444,6.13,6.13,0,0,1-.881,3.4,6.016,6.016,0,0,1-2.673,2.167l4.306,8.135v.191h-4.4ZM21.971,9.3H25.28a3.388,3.388,0,0,0,2.392-.786,2.811,2.811,0,0,0,.848-2.167,3.009,3.009,0,0,0-.8-2.215,3.324,3.324,0,0,0-2.454-.807h-3.3Z" fill="#333"/>
      <path id="패스_16651" data-name="패스 16651" d="M46.977,15.8H39.786l-1.368,4.1H34.057L41.467,0h3.8L52.72,19.906H48.358Zm-6.084-3.322H45.87l-2.5-7.451Z" fill="#333"/>
      <path id="패스_16652" data-name="패스 16652" d="M70.766,19.906h-4.1L58.68,6.808v13.1h-4.1V0h4.1l8,13.125V0h4.088Z" fill="#333"/>
      <path id="패스_16653" data-name="패스 16653" d="M74.348,19.906V0h6.125a9.308,9.308,0,0,1,4.7,1.182A8.244,8.244,0,0,1,88.4,4.546,10.369,10.369,0,0,1,89.565,9.5v.916a10.414,10.414,0,0,1-1.141,4.935A8.181,8.181,0,0,1,85.2,18.7a9.373,9.373,0,0,1-4.69,1.2Zm4.1-16.584V16.611h1.982a4.456,4.456,0,0,0,3.678-1.572,7.108,7.108,0,0,0,1.3-4.5V9.488a7.224,7.224,0,0,0-1.258-4.6,4.438,4.438,0,0,0-3.678-1.565Z" fill="#333"/>
    </g>
  </g>
</svg>
