<?xml version="1.0" encoding="UTF-8"?><svg id="_레이어_2" xmlns="http://www.w3.org/2000/svg" viewBox="0 0 49.25 9.53"><g id="_레이어_1-2"><path d="m5.51,7.94h-2.82l-.49,1.59H0L3.13,0h1.93l3.15,9.53h-2.21l-.5-1.59Zm-2.33-1.59h1.83l-.92-3.96-.91,3.96Z"/><path d="m10.89,6.64v2.89h-2.06V0h3.4c.65,0,1.23.12,1.73.36s.89.58,1.17,1.03.41.95.41,1.51c0,.83-.3,2.5-.89,3s-1.41.75-2.45.75h-1.31Zm0-1.59h1.35c.4,0,.7-.1.91-.3s.31-1.48.31-1.84c0-.4-.11-.72-.32-.96s-.51-.36-.88-.36h-1.37v3.46Z"/><path d="m18.7,6.64v2.89h-2.06V0h3.4c.65,0,1.23.12,1.73.36s.89.58,1.17,1.03.41.95.41,1.51c0,.83-.3,2.5-.89,3s-1.41.75-2.45.75h-1.31Zm0-1.59h1.35c.4,0,.7-.1.91-.3s.31-1.48.31-1.84c0-.4-.11-.72-.32-.96s-.51-.36-.88-.36h-1.37v3.46Z"/><path d="m26.46,9.53V0h3.06c1.1,0,1.93.2,2.5.6s.86.99.86,1.75c0,.44-.1,1.82-.3,2.13s-.5.54-.9.69c.45.12.79.34,1.03.66s.36.71.36,1.17c0,.84-.26,1.46-.79,1.88s-1.31.63-2.35.64h-3.46Zm2.06-4.97h1.07c.45,0,.77-.09.96-.25.19-.16.29-1.4.29-1.71,0-.36-.1-.62-.31-.78-.21-.16-.54-.24-1-.24h-1.01v2.97Zm0,1.35v2.04h1.35c.37,0,.66-.08.86-.25s.3-.41.3-.72c0-.71-.35-1.07-1.06-1.07h-1.44Z"/><path d="m39.04,7.94h-2.82l-.49,1.59h-2.2l3.13-9.53h1.93l3.15,9.53h-2.21l-.5-1.59Zm-2.33-1.59h1.83l-.92-3.96-.91,3.96Z"/><path d="m45.54,6.51h-1.11v3.02h-2.06V0h3.36c1.01,0,1.8.22,2.37.67.57.45.86,1.08.86,1.9,0,.59-.12,2.08-.36,2.48s-.62.71-1.13.95l1.78,3.44v.09h-2.2l-1.51-3.02Zm-1.11-1.58h1.3c.39,0,.68-.1.88-.31.2-.21.3-1.49.3-1.86s-.1-.66-.3-.87-.49-.31-.88-.31h-1.3v3.35Z"/></g></svg>