<svg  viewBox="0 0 22 22" fill="none" xmlns="http://www.w3.org/2000/svg">
<path d="M9.9 19.25H16.17C15.8446 20.063 15.2828 20.7597 14.5572 21.2499C13.8317 21.7402 12.9757 22.0015 12.1 22H4.4C3.23305 22 2.11389 21.5364 1.28873 20.7113C0.463571 19.8861 0 18.767 0 17.6V8.8C0.00134658 7.72852 0.392919 6.69422 1.1015 5.89049C1.81008 5.08676 2.78714 4.56863 3.85 4.433V13.2C3.85291 14.8037 4.49125 16.3408 5.62522 17.4748C6.75918 18.6087 8.29634 19.2471 9.9 19.25ZM19.25 4.675H21.582C21.5144 4.57586 21.437 4.48374 21.351 4.4L17.6 0.649002C17.519 0.563244 17.4264 0.489196 17.325 0.429001V2.75C17.3274 3.25981 17.5309 3.74807 17.8914 4.10857C18.2519 4.46906 18.7402 4.67263 19.25 4.675ZM19.25 6.325C18.3024 6.32315 17.3942 5.94591 16.7241 5.27586C16.0541 4.60582 15.6768 3.69758 15.675 2.75V0H9.9C8.73305 0 7.61389 0.463571 6.78873 1.28873C5.96357 2.11389 5.5 3.23305 5.5 4.4V13.2C5.5 14.367 5.96357 15.4861 6.78873 16.3113C7.61389 17.1364 8.73305 17.6 9.9 17.6H17.6C18.767 17.6 19.8861 17.1364 20.7113 16.3113C21.5364 15.4861 22 14.367 22 13.2V6.325H19.25Z" fill="current"/>
</svg>
