<svg viewBox="0 0 22 22" fill="none" xmlns="http://www.w3.org/2000/svg">
<path fill-rule="evenodd" clip-rule="evenodd" d="M13.442 13.6979L10.484 9.94392L14.737 12.5659L21.916 9.56592C22.2476 9.42712 22.5291 9.19053 22.7228 8.88769C22.9165 8.58485 23.0133 8.23015 23.0002 7.8709C22.9872 7.51164 22.8649 7.16489 22.6498 6.87689C22.4346 6.58889 22.1368 6.37332 21.796 6.25892L3.32001 0.089917C3.00894 -0.0133642 2.67526 -0.0279883 2.35635 0.047683C2.03744 0.123354 1.7459 0.286332 1.5144 0.518355C1.2829 0.750378 1.12057 1.04228 1.04562 1.36136C0.970658 1.68044 0.986029 2.01408 1.09001 2.32492L7.22901 20.7909C7.34296 21.1333 7.5593 21.4325 7.84877 21.6479C8.13824 21.8634 8.48689 21.9848 8.84759 21.9957C9.20828 22.0066 9.56363 21.9065 9.86559 21.7089C10.1676 21.5113 10.4016 21.2258 10.536 20.8909L13.442 13.6979Z" fill="current"/>
</svg>
