<svg  viewBox="0 0 22 22" fill="none" xmlns="http://www.w3.org/2000/svg">
<path d="M21.409 9.58353L12.432 0.60986C12.2439 0.421688 12.0206 0.272412 11.7748 0.170565C11.529 0.068718 11.2656 0.0162964 10.9995 0.0162964C10.7334 0.0162964 10.47 0.068718 10.2242 0.170565C9.97837 0.272412 9.75506 0.421688 9.567 0.60986L0.599998 9.57753L0.590998 9.58653C0.314198 9.8648 0.124266 10.2175 0.0443118 10.6017C-0.0356425 10.9859 -0.00217131 11.3851 0.140652 11.7506C0.283476 12.1162 0.529495 12.4324 0.848772 12.6607C1.16805 12.889 1.54682 13.0196 1.939 13.0366C1.95966 13.0366 1.98033 13.0366 2.001 13.0366H2.359V19.6349C2.35794 20.2639 2.60679 20.8676 3.05085 21.3133C3.49491 21.7589 4.09781 22.01 4.727 22.0113H8.238C8.40906 22.0113 8.57312 21.9434 8.69408 21.8224C8.81504 21.7015 8.883 21.5375 8.883 21.3665V16.1918C8.88406 15.9057 8.99835 15.6316 9.2009 15.4295C9.40346 15.2274 9.67781 15.1136 9.964 15.1131H12.035C12.3219 15.1134 12.5969 15.2274 12.7998 15.4302C13.0027 15.633 13.1167 15.908 13.117 16.1948V21.3715C13.117 21.5425 13.185 21.7065 13.3059 21.8274C13.4269 21.9484 13.5909 22.0163 13.762 22.0163H17.273C17.9015 22.0158 18.5041 21.766 18.9486 21.3218C19.3931 20.8776 19.6432 20.2752 19.644 19.6469V13.0486H19.976C20.3764 13.0484 20.7678 12.9295 21.1007 12.7071C21.4336 12.4846 21.6931 12.1686 21.8464 11.7988C21.9997 11.429 22.04 11.022 21.9621 10.6294C21.8843 10.2367 21.6918 9.8759 21.409 9.59253V9.58353Z" fill="current"/>
</svg>
