<svg viewBox="0 0 22 22" fill="none" xmlns="http://www.w3.org/2000/svg">
<mask id="mask0_1_2814" style="mask-type:luminance" maskUnits="userSpaceOnUse" x="0" y="0" width="22" height="23">
<path d="M21.408 0H0.592041V22.001H21.408V0Z" fill="current"/>
</mask>
<g mask="url(#mask0_1_2814)">
<path d="M20.892 13.213C20.5531 12.9447 20.2788 12.6036 20.0897 12.2149C19.9006 11.8262 19.8015 11.3998 19.7997 10.9676C19.7978 10.5353 19.8934 10.1082 20.0792 9.71786C20.265 9.32756 20.5363 8.98411 20.873 8.713C21.0912 8.53457 21.248 8.29235 21.3215 8.0203C21.395 7.74825 21.3816 7.46002 21.283 7.196C20.8542 6.01745 20.2242 4.92222 19.421 3.959C19.2389 3.73841 18.9917 3.58097 18.7148 3.50914C18.4379 3.43731 18.1454 3.45476 17.879 3.559C17.4753 3.72154 17.0398 3.79008 16.6056 3.75942C16.1714 3.72877 15.7499 3.59972 15.373 3.38206C14.996 3.1644 14.6736 2.86383 14.43 2.5031C14.1864 2.14238 14.0281 1.73096 13.967 1.3C13.925 1.01661 13.7946 0.753729 13.5944 0.548837C13.3942 0.343945 13.1344 0.207512 12.852 0.158999C11.7109 -0.038528 10.5456 -0.0527062 9.40003 0.116999C9.11148 0.159518 8.84415 0.29334 8.6372 0.498852C8.43024 0.704364 8.29456 0.97076 8.25003 1.259C8.1894 1.70221 8.0258 2.12506 7.77233 2.49366C7.51886 2.86226 7.18258 3.16636 6.79042 3.38159C6.39826 3.59682 5.96114 3.71719 5.51408 3.73307C5.06702 3.74894 4.62246 3.65987 4.21603 3.473C3.95016 3.35487 3.65337 3.32532 3.36943 3.3887C3.08548 3.45208 2.82943 3.60503 2.63903 3.825C2.18266 4.3421 1.77868 4.90318 1.43303 5.5C1.1437 6.00125 0.895875 6.52533 0.692027 7.067C0.585023 7.3455 0.572784 7.6515 0.657203 7.93766C0.741622 8.22381 0.917993 8.47417 1.15903 8.65C1.77813 9.0896 2.19733 9.75706 2.32447 10.5056C2.45161 11.2542 2.27628 12.0226 1.83703 12.642C1.65078 12.9045 1.42156 13.1337 1.15903 13.32C0.915493 13.4917 0.736291 13.7398 0.649873 14.025C0.563454 14.3101 0.574771 14.616 0.682027 14.894C1.1127 16.0581 1.73866 17.1403 2.53303 18.094C2.63613 18.2127 2.75769 18.314 2.89303 18.394C3.08027 18.5016 3.29058 18.5628 3.50634 18.5723C3.72209 18.5819 3.93699 18.5396 4.13303 18.449C4.55013 18.2495 5.00966 18.1548 5.47167 18.1733C5.93368 18.1917 6.38419 18.3228 6.78403 18.555C7.17148 18.7792 7.50125 19.0908 7.74708 19.4649C7.9929 19.839 8.148 20.2654 8.20003 20.71C8.23452 21.0062 8.36602 21.2826 8.57404 21.4962C8.78205 21.7098 9.05489 21.8486 9.35003 21.891C10.4857 22.0521 11.6396 22.0349 12.77 21.84C13.0536 21.793 13.3149 21.6574 13.5165 21.4525C13.7181 21.2477 13.8496 20.9842 13.892 20.7C13.9469 20.2597 14.1033 19.8382 14.349 19.4687C14.5946 19.0992 14.9228 18.7919 15.3076 18.5709C15.6924 18.35 16.1233 18.2216 16.5663 18.1957C17.0092 18.1699 17.4521 18.2473 17.86 18.422C18.1272 18.5306 18.422 18.5514 18.7018 18.4813C18.9815 18.4112 19.2317 18.2538 19.416 18.032C19.8243 17.5607 20.1904 17.0544 20.51 16.519C20.8394 15.949 21.1146 15.3494 21.332 14.728C21.4277 14.4627 21.4374 14.174 21.3599 13.9028C21.2824 13.6316 21.1215 13.3917 20.9 13.217M14.153 12.848C13.79 13.4765 13.2488 13.9833 12.5979 14.3043C11.9469 14.6253 11.2155 14.7462 10.4958 14.6516C9.77624 14.557 9.10082 14.2512 8.55493 13.7729C8.00905 13.2946 7.6172 12.6652 7.4289 11.9643C7.2406 11.2633 7.26431 10.5223 7.49703 9.83481C7.72975 9.14734 8.16103 8.54428 8.73637 8.10183C9.31172 7.65939 10.0053 7.39743 10.7295 7.34904C11.4537 7.30066 12.1759 7.46803 12.805 7.83C13.6479 8.31691 14.2629 9.11866 14.5147 10.0589C14.7666 10.9992 14.6347 12.001 14.148 12.844" fill="current"/>
</g>
</svg>
